<svg width="149" height="140" viewBox="0 0 149 140" fill="none" xmlns="http://www.w3.org/2000/svg">
<g filter="url(#filter0_i_2_5734)">
<path d="M74.8139 139.934C73.6246 139.793 72.3158 139.929 71.2634 139.472C45.4749 128.292 23.6916 112.17 9.14806 87.6295C0.582816 73.177 -2.57007 57.6005 2.28779 41.0616C5.58931 29.8214 12.4017 21.5381 23.3676 16.8859C24.7199 16.3122 25.9421 15.2939 27.04 14.2816C32.5959 9.15871 38.3408 4.27478 45.5418 1.64084C48.1655 0.681123 51.0524 0.0433925 53.8305 0.00105212C57.5537 -0.0556809 60.1326 2.18458 60.7221 6.09218C61.2442 9.55299 61.05 13.1474 60.9066 16.672C60.8373 18.3737 61.1072 19.3181 62.6992 20.321C66.5496 22.7468 70.156 25.5599 74.0841 28.5332C76.9355 34.7505 78.9016 40.8264 79.217 47.5966C78.2419 53.3587 77.052 58.9618 79.1412 64.3825C81.433 70.3291 80.711 75.445 76.3241 80.0795C75.4946 80.9559 74.8819 82.0403 74.1878 83.0415C72.1003 86.0525 69.4286 88.2888 65.5897 89.337C62.7493 89.5548 60.1882 89.7946 57.3643 90.0061C48.0203 88.7303 43.9951 82.1884 43.4756 76.5596C43.3533 75.2339 44.4695 73.1241 45.6234 72.5022C47.5122 71.4844 49.6186 72.2218 50.8137 74.3077C51.1586 74.9097 51.2621 75.6478 51.4928 76.3177C53.2544 81.433 57.5084 83.5035 62.6132 81.7139C65.7315 80.6208 67.8412 78.4378 69.1689 75.9211C68.0808 74.3358 67.1735 73.0141 66.2663 71.6924C68.2054 71.0974 70.1444 70.5025 71.3811 70.123C71.1259 64.7107 71.1465 59.1607 70.5129 53.6865C70.0429 49.6255 69.2973 45.4103 67.6681 41.7065C63.7445 32.7868 55.5125 29.1154 46.8207 26.8578C33.6943 23.4484 17.1298 27.5543 12.5667 47.3425C10.2284 57.4827 12.3749 66.9829 16.7369 76.0081C28.8641 101.1 49.7633 116.59 74.4923 128.052C79.8331 132.038 79.8866 135.234 74.8139 139.934ZM49.7683 8.25686C46.4555 9.97533 43.1427 11.6938 39.8299 13.4123C39.9486 13.5939 40.0673 13.7756 40.1859 13.9572C44.5284 14.4558 48.8708 14.9544 53.5407 15.4906C53.5407 12.8096 53.5407 10.2006 53.5407 7.23259C52.1386 7.60289 51.1863 7.85437 49.7683 8.25686Z" fill="#F56464"/>
<path d="M79.1968 47.3429C78.9055 40.8246 76.9394 34.7487 74.2656 28.6306C81.3248 21.9064 89.4734 17.3752 98.9303 15.2807C99.6771 15.1153 100.615 14.7713 101.006 14.198C105.47 7.63758 121.224 7.47189 126.965 10.4895C128.601 11.3496 129.978 12.862 131.206 14.3039C133.428 16.9131 135.419 19.7173 137.558 22.3992C144.27 30.8166 146.882 40.7135 148.123 51.1525C149.738 64.7298 145.662 76.9105 138.768 88.2468C124.04 112.465 102.86 129.024 76.7758 139.594C76.3135 139.781 75.8025 139.849 75.066 139.952C79.8906 135.232 79.837 132.036 74.692 127.957C75.5875 127.321 76.4159 126.936 77.2368 126.535C94.1465 118.292 109.337 107.761 121.18 92.9324C128.891 83.2769 134.754 72.6834 136.225 60.1365C136.938 54.0544 136.313 48.134 134.011 42.5187C132.474 46.1645 131.345 49.9113 129.416 53.1879C125.624 59.6323 118.341 60.6554 112.845 55.5973C110.796 53.7118 108.913 51.3539 107.769 48.8407C105.635 44.1558 104.017 39.2271 102.348 34.3442C101.546 31.9998 101.116 29.5285 100.511 27.0875C89.7337 30.308 82.4349 36.7087 79.1968 47.3429ZM125.125 20.0408C124.961 19.6512 124.468 19.217 123.858 18.6068C122.333 17.3866 121.417 16.4714 120.807 16.1664C120.413 15.9692 119.587 15.5563 118.977 15.5078C118.977 15.5078 118.435 15.5078 117.717 15.5078C116.807 15.5579 115.881 15.5149 114.99 15.6729C108.217 16.8748 106.429 19.17 108.488 25.5667C110.864 32.945 113.806 40.1547 116.834 47.2973C117.414 48.6665 119.531 50.161 120.936 50.1572C122.05 50.1541 123.662 48.1319 124.187 46.6909C127.33 38.0541 129.034 29.2961 125.125 20.0408Z" fill="#BA8F6F"/>
<path d="M65.5883 89.3359C65.644 90.1292 65.4202 90.9004 65.1127 91.9602C67.3229 91.6144 69.3649 91.2494 71.4198 90.9851C73.8795 90.6687 74.6645 91.8133 73.7308 94.0246C72.2081 97.6312 70.8302 101.443 65.917 101.874C68.503 106.171 72.2976 107.625 77.0628 106.976C82.8132 106.193 87.2506 103.554 89.3768 97.9163C89.9394 96.4246 90.0931 94.7591 90.2965 93.1559C90.6173 90.6269 91.9388 89.2121 94.5182 89.3712C97.2536 89.5399 98.0935 91.3731 97.8975 93.8273C96.6097 109.953 82.3535 116.786 69.9757 114.009C60.0953 111.793 54.5167 100.768 57.5702 90.2771C60.1868 89.7936 62.7478 89.5537 65.5883 89.3359Z" fill="#BA8F6F"/>
<path d="M91.922 61.4682C89.013 61.0624 88.4378 59.5039 89.2598 57.0923C91.0377 51.876 95.8463 49.1712 100.69 50.6967C102.49 51.2637 103.988 52.2119 103.493 54.3429C103.022 56.3657 101.508 56.9924 99.4994 56.4151C97.141 55.7373 95.7103 56.6232 94.7196 58.8864C94.2667 59.9212 93.0242 60.6104 91.922 61.4682Z" fill="#BA8F6F"/>
<path d="M62.6402 55.8875C61.8798 57.0149 61.1236 58.5955 60.3022 58.6301C59.1964 58.6767 57.5994 57.8068 56.9969 56.8412C55.7128 54.7833 54.1361 53.7976 51.7756 53.9648C49.6438 54.1157 48.1572 53.3642 48.0091 51.0493C47.8542 48.6277 49.7057 48.341 51.4534 48.1274C56.1795 47.5499 60.4245 50.4371 62.6402 55.8875Z" fill="#F56464"/>
</g>
<defs>
<filter id="filter0_i_2_5734" x="0" y="0" width="149.114" height="140.591" filterUnits="userSpaceOnUse" color-interpolation-filters="sRGB">
<feFlood flood-opacity="0" result="BackgroundImageFix"/>
<feBlend mode="normal" in="SourceGraphic" in2="BackgroundImageFix" result="shape"/>
<feColorMatrix in="SourceAlpha" type="matrix" values="0 0 0 0 0 0 0 0 0 0 0 0 0 0 0 0 0 0 127 0" result="hardAlpha"/>
<feOffset dx="0.637573" dy="0.637573"/>
<feGaussianBlur stdDeviation="1.27515"/>
<feComposite in2="hardAlpha" operator="arithmetic" k2="-1" k3="1"/>
<feColorMatrix type="matrix" values="0 0 0 0 0 0 0 0 0 0 0 0 0 0 0 0 0 0 0.25 0"/>
<feBlend mode="normal" in2="shape" result="effect1_innerShadow_2_5734"/>
</filter>
</defs>
</svg>
